G04 MADE WITH FRITZING*
G04 WWW.FRITZING.ORG*
G04 DOUBLE SIDED*
G04 HOLES PLATED*
G04 CONTOUR ON CENTER OF CONTOUR VECTOR*
%ASAXBY*%
%FSLAX23Y23*%
%MOIN*%
%OFA0B0*%
%SFA1.0B1.0*%
%ADD10C,0.088000*%
%ADD11C,0.084000*%
%ADD12C,0.070444*%
%ADD13C,0.102000*%
%ADD14C,0.085000*%
%ADD15C,0.135984*%
%ADD16C,0.072992*%
%ADD17C,0.096614*%
%ADD18R,0.102000X0.102000*%
%ADD19R,0.072992X0.072992*%
%LNMASK1*%
G90*
G70*
G54D10*
X3199Y1473D03*
X3199Y1373D03*
X3199Y1273D03*
X3199Y1173D03*
X199Y823D03*
X199Y923D03*
X199Y1023D03*
X199Y1123D03*
G54D11*
X1049Y2923D03*
X1149Y2923D03*
X1249Y2923D03*
X1349Y2923D03*
X1449Y2923D03*
X1549Y2923D03*
X1649Y2923D03*
X1749Y2923D03*
X1849Y2923D03*
X1949Y2923D03*
X2049Y2923D03*
X2149Y2923D03*
X2249Y2923D03*
X2349Y2923D03*
X2449Y2923D03*
X2549Y2923D03*
X1449Y2323D03*
X1549Y2323D03*
X1649Y2323D03*
X1749Y2323D03*
X1849Y2323D03*
X1949Y2323D03*
X2049Y2323D03*
X2149Y2323D03*
G54D12*
X149Y423D03*
X149Y123D03*
G54D13*
X3349Y1723D03*
X3349Y2023D03*
X149Y1373D03*
X149Y1673D03*
G54D14*
X2799Y2323D03*
X3199Y2323D03*
X149Y1823D03*
X149Y2223D03*
G54D15*
X2499Y2073D03*
G54D16*
X349Y2422D03*
X349Y2323D03*
X699Y2422D03*
X699Y2323D03*
G54D10*
X1049Y1973D03*
X949Y1973D03*
X849Y1973D03*
X749Y1973D03*
X649Y1973D03*
X549Y1973D03*
X1949Y1973D03*
X1849Y1973D03*
X1749Y1973D03*
X1649Y1973D03*
X1549Y1973D03*
X1449Y1973D03*
X1349Y1973D03*
X1249Y1973D03*
X1249Y273D03*
X1149Y273D03*
X1049Y273D03*
X949Y273D03*
X849Y273D03*
X749Y273D03*
X649Y273D03*
X549Y273D03*
X2299Y273D03*
X2199Y273D03*
X2099Y273D03*
X1999Y273D03*
X1899Y273D03*
X1799Y273D03*
X1699Y273D03*
X1599Y273D03*
X1499Y273D03*
X1399Y273D03*
G54D15*
X449Y1873D03*
X449Y773D03*
X2449Y173D03*
G54D17*
X3199Y173D03*
X3299Y2173D03*
X299Y2073D03*
G54D18*
X3349Y1723D03*
X149Y1373D03*
G54D19*
X349Y2422D03*
X699Y2422D03*
G04 End of Mask1*
M02*