G04 MADE WITH FRITZING*
G04 WWW.FRITZING.ORG*
G04 DOUBLE SIDED*
G04 HOLES PLATED*
G04 CONTOUR ON CENTER OF CONTOUR VECTOR*
%ASAXBY*%
%FSLAX23Y23*%
%MOIN*%
%OFA0B0*%
%SFA1.0B1.0*%
%ADD10C,0.078000*%
%ADD11C,0.074000*%
%ADD12C,0.060444*%
%ADD13C,0.092000*%
%ADD14C,0.075000*%
%ADD15C,0.062992*%
%ADD16R,0.092000X0.092000*%
%ADD17R,0.062992X0.062992*%
%ADD18C,0.024000*%
%LNCOPPER0*%
G90*
G70*
G54D10*
X3199Y1473D03*
X3199Y1373D03*
X3199Y1273D03*
X3199Y1173D03*
X199Y823D03*
X199Y923D03*
X199Y1023D03*
X199Y1123D03*
G54D11*
X1049Y2923D03*
X1149Y2923D03*
X1249Y2923D03*
X1349Y2923D03*
X1449Y2923D03*
X1549Y2923D03*
X1649Y2923D03*
X1749Y2923D03*
X1849Y2923D03*
X1949Y2923D03*
X2049Y2923D03*
X2149Y2923D03*
X2249Y2923D03*
X2349Y2923D03*
X2449Y2923D03*
X2549Y2923D03*
X1449Y2323D03*
X1549Y2323D03*
X1649Y2323D03*
X1749Y2323D03*
X1849Y2323D03*
X1949Y2323D03*
X2049Y2323D03*
X2149Y2323D03*
G54D12*
X149Y423D03*
X149Y123D03*
G54D13*
X3349Y1723D03*
X3349Y2023D03*
X149Y1373D03*
X149Y1673D03*
G54D14*
X2799Y2323D03*
X3199Y2323D03*
X149Y1823D03*
X149Y2223D03*
G54D15*
X349Y2422D03*
X349Y2323D03*
X699Y2422D03*
X699Y2323D03*
G54D10*
X1049Y1973D03*
X949Y1973D03*
X849Y1973D03*
X749Y1973D03*
X649Y1973D03*
X549Y1973D03*
X2299Y273D03*
X2199Y273D03*
X2099Y273D03*
X1999Y273D03*
X1899Y273D03*
X1799Y273D03*
X1699Y273D03*
X1599Y273D03*
X1499Y273D03*
X1399Y273D03*
X1249Y273D03*
X1149Y273D03*
X1049Y273D03*
X949Y273D03*
X849Y273D03*
X749Y273D03*
X649Y273D03*
X549Y273D03*
X1949Y1973D03*
X1849Y1973D03*
X1749Y1973D03*
X1649Y1973D03*
X1549Y1973D03*
X1449Y1973D03*
X1349Y1973D03*
X1249Y1973D03*
G54D16*
X3349Y1723D03*
X149Y1373D03*
G54D17*
X349Y2422D03*
X699Y2422D03*
G54D18*
X1849Y1824D02*
X1849Y1175D01*
D02*
X1849Y1175D02*
X3169Y1173D01*
D02*
X1548Y1824D02*
X1849Y1824D01*
D02*
X1549Y1943D02*
X1548Y1824D01*
D02*
X2048Y1723D02*
X3312Y1723D01*
D02*
X2048Y1824D02*
X2048Y1723D01*
D02*
X1849Y1824D02*
X2048Y1824D01*
D02*
X399Y1175D02*
X399Y1124D01*
D02*
X1849Y1175D02*
X399Y1175D01*
D02*
X399Y1124D02*
X229Y1124D01*
D02*
X849Y304D02*
X848Y425D01*
D02*
X848Y425D02*
X848Y1023D01*
D02*
X3298Y1273D02*
X3229Y1273D01*
D02*
X848Y1023D02*
X3298Y1023D01*
D02*
X3298Y1023D02*
X3298Y1273D01*
D02*
X3349Y1374D02*
X3229Y1374D01*
D02*
X3349Y972D02*
X3349Y1374D01*
D02*
X1047Y972D02*
X3349Y972D01*
D02*
X1049Y304D02*
X1047Y972D01*
D02*
X649Y925D02*
X649Y573D01*
D02*
X649Y573D02*
X399Y573D01*
D02*
X399Y573D02*
X399Y73D01*
D02*
X949Y73D02*
X949Y243D01*
D02*
X399Y73D02*
X949Y73D01*
D02*
X229Y924D02*
X649Y925D01*
D02*
X750Y1023D02*
X229Y1023D01*
D02*
X749Y304D02*
X750Y1023D01*
D02*
X2149Y2422D02*
X2149Y2355D01*
D02*
X1047Y2422D02*
X2149Y2422D01*
D02*
X1049Y2004D02*
X1047Y2422D01*
D02*
X949Y1273D02*
X98Y1273D01*
D02*
X98Y722D02*
X250Y722D01*
D02*
X98Y1273D02*
X98Y722D01*
D02*
X949Y1943D02*
X949Y1273D01*
D02*
X250Y722D02*
X250Y124D01*
D02*
X250Y124D02*
X174Y124D01*
D02*
X2298Y2473D02*
X2298Y2172D01*
D02*
X2298Y2172D02*
X2650Y2172D01*
D02*
X2650Y2172D02*
X2650Y2023D01*
D02*
X849Y2004D02*
X848Y2172D01*
D02*
X1000Y2172D02*
X1000Y2473D01*
D02*
X2650Y2023D02*
X3312Y2023D01*
D02*
X1000Y2473D02*
X2298Y2473D01*
D02*
X848Y2172D02*
X1000Y2172D01*
G04 End of Copper0*
M02*