; NON-PLATED HOLES START AT T1
; THROUGH (PLATED) HOLES START AT T100
M48
INCH
T1C0.125984
T2C0.086614
T100C0.040000
T101C0.028444
T102C0.038000
T103C0.035000
T104C0.052000
T105C0.031497
%
T1
X024489Y001734
X024989Y020734
X004489Y018734
X004489Y007734
T2
X002989Y020734
X032989Y021734
X031989Y001734
T100
X014489Y029234
X021489Y023234
X013489Y029234
X024489Y029234
X016489Y029234
X019489Y029234
X022489Y029234
X018489Y029234
X023489Y029234
X019489Y023234
X015489Y029234
X017489Y023234
X014489Y023234
X016489Y023234
X020489Y023234
X018489Y023234
X012489Y029234
X010489Y029234
X011489Y029234
X017489Y029234
X020489Y029234
X025489Y029234
X015489Y023234
X021489Y029234
T101
X001489Y004234
X001489Y001234
T102
X031989Y012734
X006489Y002734
X001989Y011234
X011489Y002734
X006489Y019734
X009489Y002734
X031989Y014734
X008489Y002734
X013489Y019734
X014489Y019734
X014989Y002734
X016489Y019734
X005489Y002734
X017489Y019734
X001989Y009234
X012489Y019734
X001989Y010234
X019989Y002734
X007489Y002734
X019489Y019734
X021989Y002734
X008489Y019734
X015489Y019734
X010489Y019734
X010489Y002734
X005489Y019734
X031989Y013734
X017989Y002734
X018989Y002734
X009489Y019734
X022989Y002734
X007489Y019734
X016989Y002734
X020989Y002734
X018489Y019734
X013989Y002734
X001989Y008234
X015989Y002734
X012489Y002734
X031989Y011734
T103
X031989Y023234
X001489Y022234
X027989Y023234
X001489Y018234
T104
X001489Y016734
X033489Y017234
X001489Y013734
X033489Y020234
T105
X003489Y023234
X006989Y023234
X003489Y024218
X006989Y024218
T00
M30
